<svg xmlns="http://www.w3.org/2000/svg" width="13.1" height="19.051" viewBox="0 0 13.1 19.051">
  <g id="location" transform="translate(-79.968 0)">
    <path id="Path_250" data-name="Path 250" d="M92.158,3.262A6.465,6.465,0,0,0,86.664,0c-.1,0-.2,0-.293,0a6.465,6.465,0,0,0-5.494,3.261,6.632,6.632,0,0,0-.087,6.553l4.724,8.647.006.011a1.148,1.148,0,0,0,1.992,0l.006-.011,4.724-8.647a6.633,6.633,0,0,0-.087-6.553Zm-5.64,5.37A2.679,2.679,0,1,1,89.2,5.953,2.682,2.682,0,0,1,86.518,8.632Z" transform="translate(0 0)" fill="#7c3567"/>
  </g>
</svg>
